<svg width="25" height="29" viewBox="0 0 25 29" fill="none" xmlns="http://www.w3.org/2000/svg">
<g clip-path="url(#clip0)">
<path d="M12.1265 7.99047C8.68497 7.99047 5.909 10.7664 5.909 14.208C5.909 17.6496 8.68497 20.4255 12.1265 20.4255C15.5681 20.4255 18.3441 17.6496 18.3441 14.208C18.3441 10.7664 15.5681 7.99047 12.1265 7.99047ZM12.1265 18.2502C9.9025 18.2502 8.08432 16.4374 8.08432 14.208C8.08432 11.9786 9.89709 10.1658 12.1265 10.1658C14.356 10.1658 16.1687 11.9786 16.1687 14.208C16.1687 16.4374 14.3506 18.2502 12.1265 18.2502ZM20.0486 7.73614C20.0486 8.54242 19.3993 9.18636 18.5984 9.18636C17.7921 9.18636 17.1482 8.53701 17.1482 7.73614C17.1482 6.93528 17.7975 6.28592 18.5984 6.28592C19.3993 6.28592 20.0486 6.93528 20.0486 7.73614ZM24.1666 9.208C24.0746 7.26536 23.6309 5.54458 22.2077 4.12683C20.7899 2.70909 19.0692 2.26536 17.1265 2.16796C15.1244 2.05432 9.12328 2.05432 7.12112 2.16796C5.18389 2.25995 3.46311 2.70367 2.03995 4.12142C0.616791 5.53917 0.178479 7.25995 0.0810769 9.20259C-0.0325595 11.2048 -0.0325595 17.2058 0.0810769 19.208C0.173068 21.1506 0.616791 22.8714 2.03995 24.2892C3.46311 25.7069 5.17848 26.1506 7.12112 26.248C9.12328 26.3617 15.1244 26.3617 17.1265 26.248C19.0692 26.1561 20.7899 25.7123 22.2077 24.2892C23.6254 22.8714 24.0692 21.1506 24.1666 19.208C24.2802 17.2058 24.2802 11.2102 24.1666 9.208ZM21.58 21.3563C21.1579 22.4169 20.3408 23.234 19.2748 23.6615C17.6785 24.2946 13.8906 24.1485 12.1265 24.1485C10.3625 24.1485 6.56917 24.2892 4.97826 23.6615C3.91766 23.2394 3.10056 22.4223 2.67307 21.3563C2.03995 19.7599 2.18606 15.9721 2.18606 14.208C2.18606 12.4439 2.04536 8.65064 2.67307 7.05973C3.09515 5.99913 3.91225 5.18203 4.97826 4.75454C6.57458 4.12142 10.3625 4.26753 12.1265 4.26753C13.8906 4.26753 17.6839 4.12683 19.2748 4.75454C20.3354 5.17662 21.1525 5.99372 21.58 7.05973C22.2131 8.65605 22.067 12.4439 22.067 14.208C22.067 15.9721 22.2131 19.7654 21.58 21.3563Z" fill="#3A3A3A"/>
</g>
<defs>
<clipPath id="clip0">
<rect y="0.360596" width="24.2424" height="27.7056" fill="white"/>
</clipPath>
</defs>
</svg>
