<svg width="28" height="29" viewBox="0 0 28 29" fill="none" xmlns="http://www.w3.org/2000/svg">
<g clip-path="url(#clip0)">
<path d="M25.0481 8.57033C25.0657 8.81644 25.0657 9.06259 25.0657 9.3087C25.0657 16.8152 19.3523 25.4644 8.90996 25.4644C5.69286 25.4644 2.70434 24.5327 0.19043 22.9154C0.647518 22.9681 1.08697 22.9857 1.56164 22.9857C4.21613 22.9857 6.65975 22.0892 8.6111 20.5597C6.11478 20.507 4.02279 18.8721 3.30201 16.6218C3.65363 16.6746 4.0052 16.7097 4.37441 16.7097C4.88421 16.7097 5.39405 16.6394 5.86868 16.5164C3.26689 15.9889 1.31548 13.7036 1.31548 10.9436V10.8733C2.07138 11.2952 2.95044 11.5589 3.8821 11.594C2.35266 10.5744 1.35066 8.83402 1.35066 6.86508C1.35066 5.81032 1.63188 4.84344 2.12414 3.99961C4.91933 7.44522 9.12089 9.69539 13.8322 9.94154C13.7443 9.51963 13.6916 9.08018 13.6916 8.64068C13.6916 5.51146 16.2231 2.96243 19.3698 2.96243C21.0047 2.96243 22.4814 3.64804 23.5186 4.75556C24.8019 4.50946 26.0325 4.03478 27.1225 3.38435C26.7005 4.70285 25.804 5.81038 24.6261 6.51351C25.7688 6.39052 26.8764 6.07401 27.8959 5.63456C27.1226 6.75962 26.1556 7.76162 25.0481 8.57033Z" fill="#3A3A3A"/>
</g>
<defs>
<clipPath id="clip0">
<rect x="0.19043" y="0.360596" width="27.7056" height="27.7056" fill="white"/>
</clipPath>
</defs>
</svg>
