<svg width="25" height="29" viewBox="0 0 25 29" fill="none" xmlns="http://www.w3.org/2000/svg">
<g clip-path="url(#clip0)">
<path d="M5.52162 24.6035H0.495648V8.41845H5.52162V24.6035ZM3.00593 6.21066C1.39879 6.21066 0.0952148 4.87949 0.0952148 3.27235C0.0952149 2.50038 0.401879 1.76003 0.947743 1.21416C1.49361 0.668297 2.23396 0.361633 3.00593 0.361633C3.7779 0.361633 4.51825 0.668297 5.06411 1.21416C5.60998 1.76003 5.91664 2.50038 5.91664 3.27235C5.91664 4.87949 4.61253 6.21066 3.00593 6.21066ZM24.3322 24.6035H19.3171V16.7247C19.3171 14.847 19.2792 12.439 16.704 12.439C14.0909 12.439 13.6905 14.4791 13.6905 16.5894V24.6035H8.66989V8.41845H13.4902V10.6262H13.5606C14.2316 9.3546 15.8706 8.01261 18.316 8.01261C23.4026 8.01261 24.3376 11.3622 24.3376 15.7128V24.6035H24.3322Z" fill="#3A3A3A"/>
</g>
<defs>
<clipPath id="clip0">
<rect x="0.0952148" y="0.360596" width="24.2424" height="27.7056" fill="white"/>
</clipPath>
</defs>
</svg>
