<svg width="33" height="30" viewBox="0 0 33 30" fill="none" xmlns="http://www.w3.org/2000/svg">
<g clip-path="url(#clip0)">
<path d="M31.4911 7.10744C31.1313 5.75277 30.0713 4.68588 28.7254 4.32381C26.2859 3.66589 16.5035 3.66589 16.5035 3.66589C16.5035 3.66589 6.72129 3.66589 4.28168 4.32381C2.93578 4.68593 1.87576 5.75277 1.51598 7.10744C0.862305 9.56285 0.862305 14.6859 0.862305 14.6859C0.862305 14.6859 0.862305 19.8088 1.51598 22.2643C1.87576 23.6189 2.93578 24.6414 4.28168 25.0034C6.72129 25.6614 16.5035 25.6614 16.5035 25.6614C16.5035 25.6614 26.2858 25.6614 28.7254 25.0034C30.0713 24.6414 31.1313 23.6189 31.4911 22.2643C32.1448 19.8088 32.1448 14.6859 32.1448 14.6859C32.1448 14.6859 32.1448 9.56285 31.4911 7.10744ZM13.3042 19.3371V10.0346L21.4802 14.686L13.3042 19.3371Z" fill="#3A3A3A"/>
</g>
<defs>
<clipPath id="clip0">
<rect x="0.00683594" width="32.9932" height="29.3273" fill="white"/>
</clipPath>
</defs>
</svg>
